; NON-PLATED HOLES START AT T1
; THROUGH (PLATED) HOLES START AT T100
M48
INCH
T1C0.086614
T100C0.040000
T101C0.039370
T102C0.032778
T103C0.038000
%
T1
X045789Y003845
X001289Y003845
X001289Y021845
X045789Y021845
T100
X003789Y005845
X009789Y004845
X009789Y010845
X009789Y003845
X009789Y002845
X003789Y003845
X005289Y013845
X009789Y007845
X009789Y009845
X009289Y013845
X003789Y010845
X009789Y011845
X007289Y013845
X003789Y007845
X009789Y012845
X003789Y011845
X009789Y008845
X003789Y002845
X009789Y001845
X003789Y006845
X003789Y012845
X003789Y009845
X009789Y006845
X003789Y008845
X006289Y013845
X003789Y001845
X009789Y005845
X003789Y004845
X004289Y013845
X008289Y013845
T101
X008789Y007845
X021539Y021845
X011789Y001845
X021789Y008845
X024539Y021845
X008789Y008845
X022539Y021845
X011789Y004845
X011789Y008845
X011789Y009845
X021789Y005845
X021789Y006845
X021789Y007845
X011789Y003845
X011789Y002845
X011789Y007845
X023539Y021845
X011789Y005845
X025539Y021845
X021789Y009845
X011789Y006845
X020439Y002345
T102
X024539Y012845
X024539Y017845
T103
X001289Y007345
X001289Y012845
X021289Y011845
X001289Y006345
X001289Y009095
X001289Y010095
X021289Y015595
X021289Y017595
X001289Y005345
X021289Y016595
X001289Y011095
X008289Y017595
X009289Y017595
X001289Y013845
X022289Y011845
T00
M30
