G04 MADE WITH FRITZING*
G04 WWW.FRITZING.ORG*
G04 DOUBLE SIDED*
G04 HOLES PLATED*
G04 CONTOUR ON CENTER OF CONTOUR VECTOR*
%ASAXBY*%
%FSLAX23Y23*%
%MOIN*%
%OFA0B0*%
%SFA1.0B1.0*%
%ADD10C,0.080000*%
%ADD11C,0.076000*%
%ADD12C,0.086000*%
%ADD13C,0.096614*%
%ADD14C,0.088000*%
%ADD15C,0.087222*%
%ADD16R,0.087222X0.087222*%
%ADD17R,0.088000X0.088000*%
%LNMASK0*%
G90*
G70*
G54D10*
X2179Y985D03*
X2179Y885D03*
X2179Y785D03*
X2179Y685D03*
X2179Y585D03*
G54D11*
X2044Y235D03*
G54D10*
X1179Y985D03*
X1179Y885D03*
X1179Y785D03*
X1179Y685D03*
X1179Y585D03*
X1179Y485D03*
X1179Y385D03*
X1179Y285D03*
X1179Y185D03*
X379Y1185D03*
X379Y385D03*
X979Y585D03*
X379Y785D03*
X979Y185D03*
X979Y985D03*
X379Y185D03*
X379Y585D03*
X379Y985D03*
X879Y785D03*
X979Y385D03*
X979Y785D03*
X979Y1185D03*
X929Y1385D03*
X829Y1385D03*
X729Y1385D03*
X629Y1385D03*
X529Y1385D03*
X429Y1385D03*
X379Y285D03*
X379Y485D03*
X379Y685D03*
X379Y885D03*
X379Y1085D03*
X379Y1285D03*
X879Y885D03*
X979Y285D03*
X979Y485D03*
X979Y685D03*
X979Y885D03*
X979Y1085D03*
X979Y1285D03*
G54D12*
X2254Y2185D03*
X2354Y2185D03*
X2454Y2185D03*
X2554Y2185D03*
X2154Y2185D03*
X2254Y2185D03*
X2354Y2185D03*
X2454Y2185D03*
X2554Y2185D03*
X2154Y2185D03*
G54D13*
X4579Y2185D03*
X4579Y385D03*
X129Y385D03*
X129Y2185D03*
G54D14*
X129Y1385D03*
X129Y1285D03*
X2129Y1185D03*
X2229Y1185D03*
X129Y1110D03*
X129Y1010D03*
X129Y910D03*
X129Y735D03*
X129Y635D03*
X129Y535D03*
X2129Y1760D03*
X2129Y1660D03*
X2129Y1560D03*
G54D15*
X2454Y1785D03*
X2454Y1285D03*
G54D14*
X829Y1760D03*
X929Y1760D03*
G54D16*
X2454Y1285D03*
G54D17*
X829Y1760D03*
G04 End of Mask0*
M02*