<?xml version="1.0" encoding="utf-8"?>
<!-- Generator: Adobe Illustrator 21.1.0, SVG Export Plug-In . SVG Version: 6.00 Build 0)  -->
<svg version="1.2" baseProfile="tiny" xmlns="http://www.w3.org/2000/svg" xmlns:xlink="http://www.w3.org/1999/xlink" x="0px"
	 y="0px" viewBox="0 0 339.5 163.7" overflow="scroll" xml:space="preserve">
<g id="board">
	<path id="board_x5F_shape" fill="#006837" d="M332.5,163.7H7c-3.8,0-7-3.2-7-7V7c0-3.8,3.2-7,7-7h325.5c3.9,0,7,3.2,7,7v149.7
		C339.5,160.6,336.4,163.7,332.5,163.7z"/>
</g>
<g id="silkscreen">
	<path id="silkscreen_x5F_shape" fill="none" stroke="#FFFFFF" stroke-miterlimit="10" d="M332.5,163.7H7c-3.8,0-7-3.2-7-7V7
		c0-3.8,3.2-7,7-7h325.5c3.9,0,7,3.2,7,7v149.7C339.5,160.6,336.4,163.7,332.5,163.7z"/>
</g>
</svg>
